<svg width="24" height="24" viewBox="0 0 24 24" fill="none" xmlns="http://www.w3.org/2000/svg">
<path fill-rule="evenodd" clip-rule="evenodd" d="M17.6722 5.22781C17.976 4.92406 18.4684 4.92406 18.7722 5.22781C19.0759 5.53155 19.0759 6.02401 18.7722 6.32775L13.0999 12L18.7722 17.6722C19.0759 17.976 19.0759 18.4684 18.7722 18.7722C18.4684 19.0759 17.976 19.0759 17.6722 18.7722L12 13.0999L6.32775 18.7722C6.02401 19.0759 5.53155 19.0759 5.22781 18.7722C4.92406 18.4684 4.92406 17.976 5.22781 17.6722L10.9 12L5.22782 6.32775C4.92407 6.02401 4.92407 5.53155 5.22782 5.22781C5.53156 4.92406 6.02402 4.92406 6.32776 5.22781L12 10.9L17.6722 5.22781Z" fill="black" fill-opacity="0.5"/>
</svg>
